<svg width="29" height="25" viewBox="0 0 29 25" fill="none" xmlns="http://www.w3.org/2000/svg">
<path d="M28.4432 3.69191C27.402 4.14308 26.2688 4.46779 25.1017 4.59425C26.3135 3.87113 27.2209 2.72872 27.6538 1.38136C26.5167 2.06082 25.271 2.53726 23.9719 2.78956C23.429 2.20655 22.7723 1.74209 22.0429 1.42514C21.3134 1.10818 20.5268 0.945516 19.732 0.94728C16.5163 0.94728 13.9302 3.56544 13.9302 6.77833C13.9302 7.22951 13.9846 7.68068 14.0731 8.11476C9.25809 7.86183 4.96372 5.55128 2.10874 2.01369C1.58854 2.90617 1.31593 3.92237 1.31929 4.95656C1.31929 6.97999 2.34354 8.76417 3.90544 9.81349C2.98499 9.77708 2.08609 9.52296 1.28186 9.07179V9.14357C1.28186 11.9771 3.27591 14.3252 5.93352 14.8652C5.43453 14.9954 4.92121 15.062 4.40565 15.0635C4.02794 15.0635 3.67064 15.0259 3.30994 14.9746C4.04495 17.2852 6.18533 18.9634 8.73405 19.0181C6.74 20.5869 4.24232 21.5098 1.53026 21.5098C1.04366 21.5098 0.594484 21.4927 0.128296 21.438C2.70084 23.0957 5.75317 24.0527 9.04031 24.0527C19.7116 24.0527 25.5508 15.1729 25.5508 7.46535C25.5508 7.21242 25.5508 6.95949 25.5338 6.70656C26.6636 5.87599 27.6538 4.84718 28.4432 3.69191Z" fill="white"/>
</svg>
